<?xml version="1.0" standalone="no"?>
<!DOCTYPE svg PUBLIC "-//W3C//DTD SVG 20010904//EN"
 "http://www.w3.org/TR/2001/REC-SVG-20010904/DTD/svg10.dtd">
<svg version="1.0" xmlns="http://www.w3.org/2000/svg"
 width="920.000000pt" height="695.000000pt" viewBox="0 0 920.000000 695.000000"
 preserveAspectRatio="xMidYMid meet">

<g transform="translate(0.000000,695.000000) scale(0.100000,-0.100000)"
fill="#000000" stroke="none">
<path d="M3870 6934 c-266 -72 -363 -383 -179 -576 l38 -40 -10 -91 c-12 -113
-13 -117 -39 -117 -37 0 -328 -51 -469 -81 -75 -17 -158 -35 -186 -41 -48 -10
-52 -10 -110 26 -33 20 -91 46 -129 58 -130 39 -306 10 -352 -60 -10 -15 -19
-54 -22 -95 -4 -64 -6 -68 -26 -63 -286 70 -421 57 -496 -46 -40 -55 -54 -110
-46 -184 l6 -61 -127 -68 c-235 -125 -492 -296 -718 -479 -30 -24 -30 -24
-100 -9 -90 19 -197 13 -233 -14 -51 -38 -66 -70 -70 -146 -2 -42 3 -99 11
-136 l15 -64 -59 -70 c-447 -532 -646 -1207 -539 -1832 192 -1124 1275 -2080
2840 -2508 374 -103 710 -161 1205 -209 173 -16 877 -16 1050 0 375 37 647 77
913 137 899 200 1657 564 2232 1071 624 550 952 1232 927 1929 -18 488 -205
964 -544 1385 -181 226 -468 489 -744 683 l-66 46 -31 98 c-50 159 -121 279
-236 401 -27 29 -47 54 -45 56 2 2 49 24 104 50 55 26 113 59 128 74 88 83 73
180 -46 296 -175 171 -419 208 -721 109 -70 -24 -113 -33 -121 -27 -7 5 -31
23 -55 41 -64 49 -143 75 -225 76 -157 0 -298 -69 -614 -303 l-124 -92 -159
26 c-359 60 -692 86 -1078 86 l-269 0 -31 101 -32 101 33 62 c44 82 52 192 20
277 -67 177 -275 276 -471 223z m261 -66 c69 -32 127 -88 160 -154 19 -39 24
-65 24 -129 0 -71 -3 -86 -32 -136 l-32 -56 41 -127 41 -126 273 0 c398 0 731
-27 1098 -88 l169 -29 170 128 c382 288 601 335 789 170 l43 -39 89 30 c174
58 358 75 480 43 170 -44 335 -195 336 -307 0 -57 -72 -111 -223 -165 -40 -14
-74 -27 -76 -29 -2 -2 25 -34 60 -71 111 -118 186 -252 245 -437 28 -85 32
-91 84 -129 537 -394 838 -728 1055 -1172 158 -321 226 -606 226 -945 0 -180
-11 -291 -42 -440 -242 -1142 -1438 -2100 -3078 -2465 -478 -106 -897 -150
-1431 -150 -349 0 -514 9 -817 46 -897 107 -1732 399 -2388 835 -776 515
-1246 1190 -1335 1919 -26 212 -9 510 41 725 75 321 265 697 497 979 l69 84
-19 66 c-59 214 28 321 227 277 39 -8 79 -18 90 -21 15 -4 47 17 125 80 196
160 491 352 713 466 58 29 85 49 82 57 -3 8 -8 45 -11 82 -6 62 -4 75 20 125
40 80 92 109 195 108 42 0 136 -13 209 -27 72 -14 135 -26 140 -26 4 0 6 33 4
72 -2 59 1 79 17 104 26 43 102 68 201 68 86 -1 143 -20 249 -83 l68 -40 54
14 c143 38 492 105 625 120 34 4 67 10 73 14 6 4 15 61 20 130 l9 124 -35 36
c-55 56 -76 106 -81 192 -4 66 -1 84 20 130 43 93 104 148 206 186 62 22 196
13 263 -19z"/>
<path d="M3884 6791 c-54 -25 -109 -83 -130 -137 -26 -69 -15 -164 27 -223 32
-45 33 -50 45 -206 7 -88 13 -165 13 -172 1 -7 -19 -14 -46 -18 -272 -35 -488
-74 -725 -131 l-187 -45 -43 25 c-63 36 -164 67 -220 68 -91 0 -109 -42 -74
-172 7 -24 4 -27 -62 -48 l-69 -22 -149 46 c-122 37 -160 45 -206 42 -120 -8
-151 -104 -69 -213 l29 -40 -166 -85 c-318 -164 -584 -340 -826 -548 l-70 -59
-55 25 c-74 34 -161 37 -191 6 -34 -34 -36 -88 -6 -178 l26 -78 -93 -116
c-347 -432 -517 -863 -534 -1352 -19 -571 206 -1128 654 -1612 743 -804 1979
-1320 3398 -1418 195 -14 675 -14 885 0 1088 70 2096 400 2845 931 929 659
1355 1546 1174 2444 -50 249 -180 554 -336 790 -210 316 -510 615 -873 867
l-96 66 -23 79 c-60 205 -173 379 -331 508 -38 31 -68 61 -65 65 3 5 42 23 87
40 103 40 122 53 143 97 53 112 -70 201 -290 211 -124 5 -220 -9 -400 -60 -60
-16 -114 -31 -119 -32 -4 0 -10 10 -12 24 -11 73 -16 89 -40 111 -88 82 -459
-51 -733 -264 -72 -56 -48 -54 -256 -17 -353 62 -640 84 -1078 85 l-368 0 -9
35 c-5 19 -25 98 -44 174 -34 136 -34 140 -17 165 61 88 52 193 -23 278 -22
25 -58 54 -81 64 -54 25 -156 25 -211 0z m160 -95 c101 -42 104 -180 6 -231
-84 -43 -180 19 -180 115 0 55 26 95 74 116 40 17 59 17 100 0z m95 -676 c57
-203 101 -376 97 -385 -17 -45 -122 -69 -195 -44 -27 10 -31 16 -31 47 0 21
-9 179 -20 352 -26 412 -26 388 8 393 15 2 29 5 32 5 3 1 52 -165 109 -368z
m1176 -235 c0 -22 -31 -33 -47 -17 -17 17 -1 44 24 40 15 -2 23 -10 23 -23z
m205 -60 c0 -18 -5 -25 -19 -25 -11 0 -23 5 -26 10 -11 18 3 40 25 40 15 0 20
-7 20 -25z m-1203 -116 c48 -18 113 -92 113 -128 0 -6 -16 -28 -35 -50 -82
-90 -267 -123 -430 -76 -78 23 -78 23 -55 91 12 33 33 75 48 94 l28 33 34 -19
c71 -37 228 -9 245 45 7 24 13 25 52 10z m288 -146 c323 -72 533 -314 645
-744 27 -105 75 -368 68 -373 -2 -2 -46 -15 -98 -29 -181 -51 -525 -97 -862
-117 -198 -12 -248 -19 -330 -50 -126 -47 -198 -140 -213 -276 -9 -76 11 -355
32 -449 49 -223 168 -333 420 -390 289 -66 415 -61 874 33 l337 69 7 -129 c4
-71 5 -131 2 -134 -15 -15 -461 -87 -862 -139 -236 -31 -270 -38 -352 -76
-128 -60 -178 -154 -178 -334 0 -98 3 -116 27 -167 49 -105 147 -176 281 -204
97 -20 361 -20 501 1 178 27 299 61 474 137 l72 32 0 67 c0 51 4 68 15 73 41
16 66 -60 81 -246 l7 -86 -144 -46 c-320 -102 -623 -158 -921 -169 -135 -6
-338 8 -428 28 -76 17 -177 64 -203 94 -12 13 -127 570 -127 612 0 9 44 28
118 52 120 39 192 78 250 137 57 57 84 128 66 174 -3 9 -56 42 -117 73 -110
58 -188 118 -248 194 l-31 39 36 42 c60 70 58 144 -7 205 -46 44 -92 64 -157
70 l-58 6 24 35 c35 51 47 107 41 192 -6 102 -38 183 -96 242 l-46 47 -39 270
-38 270 32 83 c38 97 49 207 30 286 -11 48 -10 54 20 117 33 70 100 161 153
208 43 38 196 157 203 157 2 0 17 -9 32 -20 102 -74 364 -63 487 22 37 25 85
93 85 120 0 20 10 19 135 -9z m1820 -468 c265 -38 456 -133 608 -302 l38 -42
-48 -13 -48 -14 -17 70 c-20 76 -35 100 -56 87 -11 -7 -11 -18 2 -61 9 -30 16
-68 16 -86 0 -30 -5 -35 -69 -67 l-70 -36 -16 47 c-21 64 -71 149 -94 161 -14
8 -22 7 -30 -3 -9 -11 -6 -20 12 -42 30 -36 61 -96 77 -150 l12 -40 -64 -65
c-153 -153 -168 -322 -41 -440 56 -51 149 -94 238 -110 91 -16 259 -6 360 20
105 28 246 96 318 155 56 46 58 46 87 31 16 -8 38 -15 50 -15 18 0 20 -6 20
-75 0 -131 38 -270 109 -402 37 -68 38 -73 8 -73 -30 0 -98 -44 -169 -109
l-58 -53 -63 16 c-35 9 -97 16 -138 16 -123 -1 -180 -36 -286 -178 l-54 -73
25 -34 c30 -38 117 -85 160 -85 27 0 28 -1 14 -17 -54 -63 -14 -225 183 -749
136 -364 165 -486 139 -607 -11 -54 -59 -135 -86 -144 -6 -2 -24 15 -39 39
-38 58 -115 138 -132 138 -32 0 -24 -31 20 -76 56 -56 102 -122 93 -131 -4 -4
-35 -9 -70 -11 -142 -9 -301 74 -471 245 -67 68 -139 171 -305 438 -51 83
-124 197 -162 255 -39 57 -65 106 -59 108 6 2 19 11 27 20 14 14 16 37 11 166
-6 188 -30 287 -117 479 -55 125 -60 141 -51 169 6 17 9 33 7 35 -2 2 -25 -10
-52 -26 -53 -34 -89 -39 -98 -15 -10 25 -8 27 40 90 56 71 83 128 84 172 0 30
2 32 21 21 33 -17 190 -69 211 -69 31 0 21 50 -31 161 -58 125 -102 257 -131
399 -44 211 -125 385 -234 504 -29 31 -47 56 -42 56 32 -1 145 -34 193 -56 30
-15 85 -49 120 -76 36 -27 67 -47 69 -46 2 2 -1 44 -6 94 -17 163 -62 268
-158 367 l-46 47 69 0 c39 0 115 -7 170 -15z m705 -407 l27 -32 -29 -24 c-34
-28 -36 -57 -6 -89 27 -28 61 -30 88 -3 l20 20 33 -37 c81 -95 149 -161 230
-224 l88 -68 -58 -46 c-159 -126 -411 -196 -600 -166 -153 24 -249 79 -296
171 -25 47 -28 64 -24 115 12 160 162 309 397 391 87 30 99 29 130 -8z m-4473
-229 c104 -11 252 -21 330 -22 l142 -1 22 -48 c28 -60 50 -80 120 -111 47 -21
58 -31 72 -66 27 -67 27 -68 -75 -74 -132 -7 -179 -27 -259 -106 -37 -36 -70
-74 -75 -83 -8 -15 -15 -14 -70 13 -199 99 -440 16 -539 -186 -27 -55 -30 -69
-30 -170 0 -102 2 -115 31 -175 39 -83 111 -155 194 -194 60 -29 73 -31 170
-31 99 0 110 2 172 33 131 64 227 211 228 348 0 22 6 33 18 36 37 10 110 -19
186 -74 88 -65 134 -77 223 -59 88 17 144 14 193 -12 90 -47 100 -141 22 -192
-49 -31 -94 -42 -232 -55 -118 -11 -144 -20 -121 -42 16 -17 219 -15 280 1
l45 13 65 -73 c82 -91 186 -174 274 -219 37 -19 70 -43 73 -52 8 -26 -20 -61
-86 -107 -105 -74 -248 -124 -440 -153 -175 -27 -615 -13 -765 23 -70 17 -70
17 -46 43 20 21 20 24 6 36 -13 11 -20 10 -43 -7 -34 -25 -92 -109 -92 -134 0
-42 48 -31 63 14 1 5 38 1 89 -12 112 -28 324 -42 514 -34 114 4 153 3 159 -6
10 -18 -57 -113 -138 -195 l-68 -69 1 -251 1 -251 -97 -47 c-157 -75 -233 -93
-404 -93 -152 0 -224 13 -366 66 -81 31 -90 43 -104 145 -60 441 -125 703
-223 902 l-40 82 21 23 c46 49 11 70 -43 27 -71 -56 -142 -62 -227 -19 -59 30
-130 100 -164 161 -25 47 -29 63 -28 133 1 167 90 246 241 215 112 -24 198
-83 269 -185 20 -30 42 -55 47 -55 16 0 -1 198 -23 287 -27 104 -106 263 -179
359 -32 44 -100 119 -150 168 -50 49 -91 89 -91 90 0 5 170 -15 213 -24 79
-17 125 -13 132 10 16 49 -60 135 -228 260 l-88 65 23 18 c13 9 59 35 103 57
190 92 373 106 792 59z m2855 -54 c138 -31 411 -119 456 -147 39 -24 83 -90
130 -194 71 -158 91 -322 51 -429 -37 -99 -162 -206 -291 -249 -129 -43 -721
-175 -1013 -226 -151 -27 -355 -29 -468 -5 -177 37 -312 99 -381 175 -71 78
-87 138 -116 423 -22 216 6 335 98 404 65 49 126 62 362 78 490 34 805 88 965
165 33 15 68 29 78 29 10 1 68 -10 129 -24z m-2136 -336 l57 -22 -30 -12 c-34
-14 -46 -43 -30 -71 30 -55 97 -38 97 23 l0 26 25 -23 c14 -14 40 -53 57 -88
56 -113 41 -246 -39 -350 -24 -32 -29 -34 -69 -28 -54 7 -107 33 -165 82 -57
48 -97 64 -159 64 -45 0 -50 2 -50 23 0 34 -44 120 -84 164 l-36 40 29 45 c82
129 249 182 397 127z m-533 -142 c212 -104 268 -391 111 -566 -29 -32 -70 -62
-112 -83 -60 -30 -75 -33 -157 -33 -78 0 -97 4 -147 28 -121 59 -197 172 -206
301 -10 165 73 298 226 363 81 34 204 29 285 -10z m5070 -341 c9 -22 -31 -95
-70 -132 -86 -82 -162 -104 -370 -108 -138 -2 -169 -6 -247 -30 -49 -15 -91
-25 -93 -22 -12 11 106 133 150 155 69 34 169 32 293 -7 29 -9 34 -6 85 42 66
64 111 96 155 111 40 13 91 8 97 -9z m-437 -295 c-55 -105 -152 -153 -257
-127 -48 13 -125 65 -112 76 16 14 150 55 238 74 11 2 48 4 83 5 l63 1 -15
-29z m974 -261 c0 -46 -97 -117 -123 -91 -28 28 69 130 109 114 8 -3 14 -13
14 -23z m-7646 -13 c25 -19 16 -49 -17 -60 -37 -12 -77 5 -77 32 0 36 59 54
94 28z m4550 -169 c3 -13 7 -42 9 -65 4 -38 2 -42 -22 -51 -53 -21 -127 -42
-169 -48 l-43 -7 3 84 3 84 85 11 c130 17 129 17 134 -8z m-264 -96 l0 -89
-112 -16 c-178 -27 -165 -32 -173 68 -4 47 -5 88 -2 91 5 5 203 29 265 33 21
1 22 -2 22 -87z m-326 -43 l6 -86 -63 -6 c-34 -4 -115 -9 -179 -13 l-117 -7
-5 34 c-13 82 -12 119 4 123 14 4 159 27 280 45 30 4 58 5 61 2 4 -3 9 -45 13
-92z m-410 -1 c16 -99 14 -107 -19 -114 -16 -3 -61 -4 -99 -2 l-69 3 35 45
c28 38 115 99 140 100 4 0 9 -15 12 -32z m1030 -159 l7 -87 -78 -20 c-43 -12
-94 -24 -115 -27 l-36 -7 -8 69 c-4 37 -8 88 -8 112 l-1 44 85 23 c47 12 96
27 110 32 23 9 26 7 31 -22 4 -17 10 -70 13 -117z m2033 137 c1 -1 49 -96 107
-211 109 -218 234 -431 324 -550 29 -39 108 -126 175 -195 114 -115 165 -182
181 -236 5 -17 -9 -34 -81 -96 -371 -316 -827 -577 -1341 -768 -78 -29 -144
-51 -147 -48 -3 2 0 65 6 139 23 275 -11 499 -102 682 -34 69 -39 87 -39 150
-1 274 -106 607 -285 906 -31 51 -53 97 -48 101 4 4 35 17 67 30 l59 24 40
-45 c51 -57 161 -223 317 -477 117 -190 132 -211 235 -311 120 -116 231 -196
322 -232 81 -32 201 -33 259 -2 129 69 199 259 161 438 -8 39 -47 147 -87 240
-92 219 -176 424 -185 452 -6 21 -4 22 27 16 18 -3 34 -6 35 -7z m294 -118
c89 -53 161 -146 219 -287 55 -135 118 -346 133 -445 l14 -99 -116 119 c-84
86 -133 147 -177 219 -58 95 -324 578 -324 588 0 9 207 -69 251 -95z m-6021
67 c20 -25 8 -50 -25 -50 -24 0 -31 5 -33 24 -6 37 34 55 58 26z m-346 -21
c20 -8 21 -28 2 -43 -18 -15 -46 -4 -46 18 0 29 14 37 44 25z m3766 -100 c9
-81 9 -108 1 -114 -7 -4 -58 -12 -114 -19 -56 -7 -114 -14 -128 -17 -26 -5
-26 -4 -38 84 -18 141 -18 142 27 143 20 0 71 6 112 13 137 24 125 32 140 -90z
m-4192 50 c4 -27 -26 -40 -46 -20 -13 13 -13 18 -2 31 18 21 44 15 48 -11z
m3864 -57 c3 -38 9 -86 13 -106 6 -38 6 -38 -32 -44 -21 -3 -102 -9 -179 -13
-163 -8 -148 -17 -159 101 -4 39 -9 80 -12 93 -5 21 -3 22 73 23 44 1 113 5
154 9 41 4 89 7 105 6 30 -1 30 -2 37 -69z m-412 36 c1 -5 7 -52 14 -105 l12
-98 -70 0 c-39 0 -94 -3 -123 -6 l-51 -6 -8 47 c-7 48 -1 146 11 165 7 11 215
14 215 3z m1797 -84 c112 -160 211 -405 252 -625 20 -103 43 -305 36 -312 -2
-2 -12 -1 -22 2 -27 9 -48 51 -67 137 -29 131 -96 213 -277 336 -92 63 -332
206 -362 216 -18 6 103 157 166 206 61 48 195 122 212 117 6 -1 33 -36 62 -77z
m-5159 30 c5 -42 -50 -51 -61 -9 -6 23 12 42 38 38 13 -2 21 -12 23 -29z m246
-72 c16 -25 -16 -56 -38 -37 -19 15 -20 32 -4 48 15 15 28 11 42 -11z m4145
-93 l1 -61 -87 -41 c-48 -22 -91 -39 -94 -36 -6 3 -35 113 -41 158 -3 16 12
23 102 45 121 31 118 32 119 -65z m-3551 74 c7 -7 12 -24 12 -38 0 -53 -62
-72 -80 -24 -13 34 -13 40 6 58 18 19 45 21 62 4z m3305 -137 l24 -93 -26 -10
c-28 -10 -163 -42 -223 -52 l-36 -7 -15 68 c-8 37 -18 87 -22 110 l-6 41 58 7
c32 4 94 13 138 19 44 7 81 12 82 11 2 -1 13 -43 26 -94z m-3593 40 c5 -11 10
-32 10 -48 0 -55 10 -73 41 -73 39 0 50 -27 19 -50 l-23 -17 23 -31 c27 -37
19 -56 -20 -47 -27 6 -29 4 -34 -27 -16 -114 -22 -133 -38 -136 -17 -3 -23 9
-32 73 -2 17 -5 43 -5 58 -1 26 -3 28 -31 22 -41 -9 -50 16 -20 57 l22 30 -23
24 c-29 31 -16 61 25 56 25 -3 26 -1 26 43 0 52 14 85 35 85 8 0 19 -9 25 -19z
m3265 -97 c12 -58 19 -107 16 -109 -2 -3 -84 -5 -182 -5 l-177 0 -11 50 c-6
28 -14 75 -17 105 l-7 55 84 1 c46 1 125 4 174 8 50 3 92 5 95 3 3 -2 14 -51
25 -108z m-421 78 c11 -38 28 -173 23 -178 -11 -11 -112 25 -160 57 -39 26
-97 98 -97 122 0 3 40 8 89 9 50 2 101 4 115 5 16 2 26 -3 30 -15z m-3426 -43
c4 -32 -20 -53 -52 -45 -51 13 -36 79 17 74 26 -2 33 -8 35 -29z m4907 -165
c152 -88 308 -211 381 -299 35 -43 36 -47 23 -72 -20 -37 -157 -154 -264 -225
-455 -302 -1224 -480 -1894 -439 -108 7 -200 16 -204 20 -5 5 -23 42 -41 82
-44 101 -98 183 -161 245 -50 49 -56 60 -104 199 -60 174 -66 151 67 287 l85
88 40 -39 c195 -194 718 -212 1383 -51 150 37 391 113 405 128 4 4 1 48 -7 97
-21 138 -30 131 99 74 61 -27 148 -70 192 -95z m-4087 7 c21 -13 11 -55 -14
-59 -25 -3 -37 25 -22 52 10 18 17 19 36 7z m-685 -255 c7 -19 -17 -39 -40
-34 -10 2 -19 13 -21 26 -3 18 1 22 26 22 17 0 32 -6 35 -14z m172 -36 c4 -6
1 -18 -6 -26 -11 -13 -14 -13 -27 0 -8 8 -11 19 -8 25 9 14 33 14 41 1z m-17
-96 c29 -20 28 -40 -3 -60 -21 -14 -31 -15 -50 -6 -30 14 -34 56 -7 71 24 14
34 13 60 -5z m2012 -6 c0 -7 1 -175 3 -373 l2 -360 73 -299 c40 -164 71 -300
70 -301 -5 -3 -265 51 -367 77 l-94 24 -38 144 c-52 202 -102 346 -164 476
-70 148 -99 189 -226 319 -98 101 -185 218 -173 236 2 4 19 3 37 -2 17 -5 96
-22 174 -39 250 -53 402 -38 593 59 109 55 110 55 110 39z m3080 -284 c11
-120 31 -350 45 -510 14 -161 28 -312 31 -335 l6 -44 -108 -29 c-60 -16 -114
-31 -120 -33 -8 -3 -13 41 -18 139 -13 249 -39 328 -108 328 -16 0 -85 -25
-153 -55 -350 -155 -757 -253 -1225 -295 -161 -14 -431 -30 -517 -30 -65 0
-73 -2 -92 -26 -17 -22 -21 -42 -22 -108 -1 -72 -15 -168 -18 -124 -11 163
-85 613 -111 684 -9 24 -9 24 33 17 23 -5 179 -8 347 -8 238 0 334 4 440 18
519 70 955 213 1277 420 77 50 203 150 247 196 17 17 34 27 38 23 5 -5 18
-107 28 -228z m154 -69 c71 -145 96 -324 77 -575 -6 -88 -15 -170 -20 -183 -6
-15 -23 -27 -47 -35 -21 -6 -40 -10 -41 -8 -4 3 -63 880 -63 921 1 31 52 -35
94 -120z m-396 -490 c12 -26 29 -192 34 -328 l3 -77 -35 -10 c-260 -70 -703
-135 -1110 -165 -218 -15 -869 -9 -887 9 -2 2 0 52 4 111 l8 108 135 3 c668
16 1244 129 1690 329 114 51 142 55 158 20z"/>
<path d="M7493 3894 c-4 -10 22 -44 81 -103 93 -96 102 -118 65 -164 -25 -32
-85 -52 -131 -43 -21 4 -49 21 -73 46 -41 42 -76 53 -74 23 1 -10 23 -38 51
-62 44 -40 55 -45 109 -49 71 -5 108 8 149 55 34 38 40 94 16 141 -17 32 -159
172 -175 172 -7 0 -14 -7 -18 -16z"/>
<path d="M1721 3153 c-33 -16 -71 -65 -71 -90 0 -21 29 -14 41 10 14 26 49 56
67 57 9 0 10 -5 2 -19 -5 -11 -10 -43 -10 -71 0 -129 109 -213 187 -146 22 20
25 27 16 37 -10 10 -17 9 -32 -5 -47 -42 -109 -7 -130 72 -10 35 -3 95 13 121
9 15 40 -1 84 -42 25 -24 35 -28 44 -19 9 9 4 20 -22 47 -62 64 -124 80 -189
48z"/>
<path d="M5462 4135 c-282 -36 -1004 -178 -1090 -215 -57 -25 -116 -83 -139
-138 -26 -63 -36 -211 -19 -292 36 -169 111 -264 241 -301 82 -24 405 -5 700
42 265 42 673 137 741 172 46 24 123 112 151 175 19 40 28 79 31 133 10 181
-75 342 -216 407 -49 22 -72 26 -172 28 -63 2 -166 -3 -228 -11z m180 -66
c152 -77 238 -407 151 -578 -50 -97 -91 -113 -493 -192 -89 -17 -163 -29 -165
-27 -3 2 13 38 34 79 58 111 74 175 69 283 -6 127 -42 199 -150 301 -44 41
-74 75 -66 75 7 0 128 20 268 45 140 24 269 41 285 38 17 -3 46 -14 67 -24z
m-649 -108 c63 -43 141 -131 173 -192 33 -65 43 -169 24 -250 -14 -64 -79
-203 -112 -241 -21 -24 -34 -28 -153 -42 -71 -9 -193 -16 -271 -16 -186 0
-228 12 -305 89 -49 49 -61 69 -79 130 -30 97 -26 264 8 328 26 50 82 106 122
123 32 13 478 98 523 99 16 1 47 -12 70 -28z"/>
<path d="M5490 3950 l0 -80 80 0 80 0 0 80 0 80 -80 0 -80 0 0 -80z"/>
<path d="M4810 3835 l0 -75 80 0 80 0 0 75 0 75 -80 0 -80 0 0 -75z"/>
<path d="M2736 3774 c-33 -32 -9 -86 39 -86 49 0 72 53 37 85 -23 21 -56 22
-76 1z"/>
<path d="M8946 91 c-20 -22 -14 -42 12 -40 15 1 15 2 0 6 -18 5 -25 23 -9 23
5 0 11 7 15 15 7 20 3 19 -18 -4z"/>
<path d="M9020 93 c-8 -3 -18 -11 -22 -17 -5 -8 -8 -7 -8 2 0 6 -5 12 -10 12
-6 0 -5 -8 2 -20 13 -20 30 -28 26 -11 -2 5 6 17 17 25 21 16 20 18 -5 9z"/>
<path d="M9045 79 c-11 -16 -1 -19 13 -3 7 8 8 14 3 14 -5 0 -13 -5 -16 -11z"/>
<path d="M9118 83 c6 -2 10 -9 7 -13 -3 -5 -12 -7 -20 -3 -8 3 -15 0 -15 -6 0
-15 23 -14 38 1 17 17 15 28 -5 27 -11 0 -13 -3 -5 -6z"/>
</g>
</svg>
